# xmcd
#
# Track frame offsets:
#	150
#	22564
#	42423
#	61988
#	80036
#	105879
#	125000
#	151144
#	178673
#	208615
#	226549
#	242222
#	271580
#	306793
#
# Disc length: 4531 seconds
#
# Revision: 1
# Processed by: cddbd v1.5.2PL0 Copyright (c) Steve Scherf et al.
# Submitted via: audiograbber 1.83.01
#
DISCID=a411b10e
DTITLE=Savoy Brown - SAVOY BROWN - Jack the Load
DYEAR=1973
DGENRE=
TTITLE0=Coming Down Your Way
TTITLE1=Ride On Babe 
TTITLE2=Hold Your Fire 
TTITLE3=If I Want To 
TTITLE4=Endless Sleep 
TTITLE5=Casting My Spell 
TTITLE6=Just Cos' You Got the Blues Don't Mean You 
TTITLE7=Some People
TTITLE8=Jack the Toad
TTITLE9=The Saddest Feeling (Live Central Park) 
TTITLE10=Can't Find You (Live Central Park)
TTITLE11=Tell Mama (Live Central Park)
TTITLE12=Love Me Please (Live Central Park)
TTITLE13=Hip Shake (Live Central Park)
EXTD=
EXTT0=
EXTT1=
EXTT2=
EXTT3=
EXTT4=
EXTT5=
EXTT6=
EXTT7=
EXTT8=
EXTT9=
EXTT10=
EXTT11=
EXTT12=
EXTT13=
PLAYORDER=
